<svg version="1.1" id="Layer_1" xmlns="http://www.w3.org/2000/svg" x="0" y="0" viewBox="0 0 60 60" style="enable-background:new 0 0 60 60" xml:space="preserve"><style>.st0{fill:#ba1888}</style><path class="st0" d="M50.2 35.4H9.9c-.8 0-1.1.3-.9 1.1.2 1.4 1 2.3 2.3 2.7.2.1.3.1.4.4.6 3 3 5.1 6.1 5.1h24.8c3 0 5.5-2.1 6-5 0-.2.1-.3.4-.4 1.3-.4 2.1-1.4 2.3-2.7-.1-.9-.3-1.2-1.1-1.2zM48 38.1c-.7.1-.8.2-.9.9-.1 2.4-2.2 4.3-4.7 4.4H17.7c-1.8 0-3.3-.8-4.3-2.4-.4-.6-.6-1.3-.6-2.1 0-.6-.2-.8-.8-.8-.8-.1-1.4-.5-1.7-1.3h39.3c-.1.6-.8 1.2-1.6 1.3z"/><path class="st0" d="M11.3 24.3c.5.4 1 .9 1.5 1.3 2.6 2.2 5.2 4.4 7.9 6.7.1.1.3.3.3.4.3 2.1.8 3 2.6 4 .3.1 1.4-.5 1.4-.1 0 .2.4-.3.4 0 .3-.2.1-.2.4-.4.1 0 .4.2.4.2 0-.5.3.2.6.1.5-.3.8-.3.9-.9 0-.6.2-1.2.7-1.7.3-.2.3-.6.2-.9-.9-1.8-2.9-3.2-4.8-3.2-.3 0-.5-.1-.7-.3l-8.4-8.4c-.6-.6-.8-.6-1.4 0l-2.1 2.1c-.4.4-.4.7.1 1.1zm2.8-2c.6.6 1.2 1.3 1.9 2 2.1 2.2 4.3 4.3 6.4 6.4.3.3.6.4 1.1.4 1.6-.1 2.7.8 3.6 2-.5.6-.6 1.4-.8 2.1-.1.3-.5.6-.8.9-.1.1-.4 0-.5-.1-1.4-.6-2.5-1.6-2.6-3.2-.1-.8-.4-1.2-1-1.7-2.8-2.4-5.7-4.8-8.5-7.2-.1-.1-.2-.2-.3-.2.5-.5.9-.9 1.5-1.4z"/><path id="XMLID_7_" class="st0" d="M32.7 23.5c.6.7 1.3 1.4 1.9 2.2 1.8 2.3 2.5 4.8.9 7.6-.2.3-.1.7.2.9.3.2.6.1.9-.1.1-.1.2-.2.2-.3.6-1.1.9-2.2.9-3.5-.1-.6-.2-1.3-.3-1.9-.5-1.9-1.6-3.4-2.9-4.7-.7-.8-1.4-1.6-1.9-2.6-.6-1.4-.4-2.6.7-3.7.3-.3.7-.6 1-.8.3-.2.4-.6.2-.9-.2-.3-.5-.4-.9-.2-1.8.8-2.9 3-2.6 4.9.3 1.1.9 2.2 1.7 3.1z"/><path id="XMLID_6_" class="st0" d="M29.4 24.7c.4.4.9.8 1.2 1.3.9 1.2 1.4 2.5 1 4l-.3.9c-.1.3 0 .7.3.9.3.2.7 0 .9-.3.1-.1.1-.3.2-.4.8-2.2.3-4.1-1.1-5.9-.5-.6-1.1-1.1-1.6-1.6-.8-.8-1.4-1.6-1.5-2.8-.1-1.3.4-2.4 1.2-3.5.1-.2.2-.3.4-.6-.2-.2-.3-.4-.5-.6-.3-.1-.6-.1-.8.2-1.1 1.3-1.7 2.8-1.6 4.5.1 1.7 1 2.9 2.2 3.9z"/><path id="XMLID_5_" class="st0" d="M28.8 34.2c0-.5-.2-.8-.6-.8-.4 0-.6.2-.7.7-.1.3-.1.6-.4.8-.3.2-.7.3-1 .4-.4.1-.7.4-.6.7 0 .4.3.6.7.6.2 0 .5-.1.7-.1 1.1-.4 1.8-1.2 1.9-2.3z"/><path id="XMLID_4_" class="st0" d="M26.8 39.4h18.8c.4 0 .6-.3.6-.7 0-.3-.3-.6-.6-.7H26.8c-.4.1-.6.3-.6.6 0 .5.2.7.6.8z"/><path id="XMLID_3_" class="st0" d="M33 40.7H17.7c-.3.1-.5.3-.5.6s.2.6.5.7h15.4c.3-.1.5-.3.5-.7-.1-.3-.3-.5-.6-.6z"/><path id="XMLID_2_" class="st0" d="M14.5 39.4h8.7c.5 0 .8-.3.8-.7 0-.4-.3-.6-.7-.6h-8.7c-.4 0-.6.3-.6.6-.2.4.1.7.5.7z"/><path id="XMLID_1_" class="st0" d="M42.1 40.7h-5.5c-.6 0-.9.2-.8.7 0 .4.3.6.8.7h5.5c.2 0 .6-.2.7-.3.3-.6-.1-1.1-.7-1.1z"/></svg>