<svg version="1.1" id="Layer_1" xmlns="http://www.w3.org/2000/svg" x="0" y="0" viewBox="0 0 60 60" style="enable-background:new 0 0 60 60" xml:space="preserve"><style>.st0,.st1{fill:#ba1888}.st1{stroke:#ba1888;stroke-width:.5;stroke-miterlimit:10}</style><g id="XMLID_23_"><path id="XMLID_30_" class="st0" d="M315.4-211.6c-1.1-.9-2.5-1.3-3.8-1.7-3.8-1-7.6-1.2-11.5-.9-2.7.2-5.3.6-7.8 1.6-1.7.7-2.4 1.8-2.5 3.7 0 .4-.2.9-.4 1.3-.5 1-1 1.9-1.5 2.9-1.2 2.5-2.5 4.9-3.3 7.6-.9 3.3 1.5 6.8 4.9 7.1.9.1 1.8-.1 2.8-.1 0 0 .1.2.1.3.6 4.6 1.2 9.1 1.8 13.7.3 2 1.5 3.2 3.6 3.2h10.8c1.9 0 3.3-1.2 3.5-3.1.9-6.4 1.7-12.7 2.6-19.1.2-1.3.3-2.7.5-4 0-.4-.1-.7-.5-.7s-.6.2-.6.5v.2c-.5 4-1.1 8-1.6 12.1l-1.5 10.8c-.2 1.4-1.1 2.2-2.5 2.2h-10.7c-1.4 0-2.3-.7-2.5-2.2-.6-4.7-1.2-9.4-1.9-14.1 0-.3.1-.5.3-.8 1-.7 1.6-1.6 2-2.7.5-1.4.3-2.8-.1-4.2-1.1-3.1-2.6-6-4.2-8.9-.4-.7-.6-1.4-.6-2.2.1-1.1.5-1.9 1.5-2.3.7-.3 1.5-.6 2.3-.8 3.8-1 7.7-1.2 11.6-.9 2.4.2 4.8.6 7 1.5.6.3 1.2.7 1.7 1.1.4.3.6.8.5 1.3-.2.8-.2 1.6-.3 2.4-.1.4 0 .7.5.8.4.1.6-.2.6-.6.1-.7.2-1.5.3-2.2.4-1.3-.2-2.1-1.1-2.8zm-20.6 14.5c.7 2.3-.4 4.5-2.5 5.6-2 1-4.5.3-5.8-1.6-.8-1.1-1.1-2.3-.7-3.7.6-2.3 1.7-4.4 2.7-6.6.6-1.2 1.2-2.3 1.9-3.6 1.6 3.4 3.4 6.5 4.4 9.9z"/><path id="XMLID_5_" class="st0" d="M296.2-177.5c.2 1.4.9 2.1 2.3 2.1h9.3c1.4 0 2.1-.7 2.3-2.1.8-5.7 1.6-11.5 2.5-17.2.2-1.1.4-2.3.5-3.4.1-.6 0-1.2-.6-1.6-.6-.4-1 0-1.5.3-1 .7-1.9 1.6-2.4 2.9-.1.4-.3.7-.5 1-.7 1.3-1.4 1.5-2.8 1.2-.8-.2-1.7-.2-2.5-.1-2.6.5-4.9 1.8-7 3.4-.6.5-.9 1.2-.9 2 0 .9.2 1.7.3 2.6 0 .4.3.6.6.5.2-.1.4-.4.4-.7 0-.4-.1-.8-.1-1.2-.2-1.1-.2-2.1 1-2.8 1.5-.9 3-1.8 4.6-2.4 1.2-.4 2.4-.6 3.6-.2 1.6.4 2.8-.1 3.6-1.5.4-.6.7-1.3 1-2 .4-.9 1.2-1.4 2-2v.6c-1 6.9-2 13.7-2.9 20.6-.1.7-.4 1-1.1 1h-9.6c-.7 0-1-.3-1.1-1-.1-.7-.2-1.3-.2-2 0-.4-.2-.6-.6-.6-.4 0-.5.3-.5.7.1.7.2 1.3.3 1.9z"/><path id="XMLID_26_" class="st0" d="M314-209.5c0-.5-.3-.9-.7-1.1-.6-.3-1.3-.5-1.9-.7-2.7-.8-5.4-1-8.1-1.1-1.9.2-3.8.3-5.6.6-1.5.3-3 .8-4.4 1.3-.5.1-.7.5-.7 1.1 0 .5.3.8.7 1 .6.2 1.2.5 1.8.7 4.2 1.2 8.5 1.3 12.9.8 1.9-.2 3.7-.6 5.5-1.4.2-.4.5-.7.5-1.2zm-20.3-.1c4.3-2.2 15.1-2.1 19.1 0-2.9 2.3-16.3 2.2-19.1 0z"/><path id="XMLID_2_" class="st0" d="M315.2-203.4c-.2.2-.5.4-.5.6 0 .2.3.4.5.8.3-.4.5-.6.5-.8-.1-.2-.4-.4-.5-.6z"/><path id="XMLID_1_" class="st0" d="M297-182.8c-.4-.3-.6-.5-.8-.5-.3-.1-.6.2-.5.6 0 .2.3.5.5.5s.4-.3.8-.6z"/></g><g id="XMLID_9_"><path id="XMLID_20_" class="st0" d="M-125.5-198.9h-40.3c-.8 0-1.1.3-.9 1.1.2 1.4 1 2.3 2.3 2.7.2.1.3.1.4.4.6 3 3 5.1 6.1 5.1h24.8c3 0 5.5-2.1 6-5 0-.2.1-.3.4-.4 1.3-.4 2.1-1.4 2.3-2.7 0-.9-.2-1.2-1.1-1.2zm-2.1 2.6c-.7.1-.8.2-.9.9-.1 2.4-2.2 4.3-4.7 4.4h-24.7c-1.8 0-3.3-.8-4.3-2.4-.4-.6-.6-1.3-.6-2.1 0-.6-.2-.8-.8-.8-.8-.1-1.4-.5-1.7-1.3h39.3c-.1.7-.8 1.2-1.6 1.3z"/><path id="XMLID_17_" class="st0" d="M-164.4-210.1c.5.4 1 .9 1.5 1.3 2.6 2.2 5.2 4.4 7.9 6.7.1.1.3.3.3.4.3 2.1.8 3 2.6 4 .3.1 1.4-.5 1.4-.1 0 .2.4-.3.4 0 .3-.2.1-.2.4-.4.1 0 .4.2.4.2 0-.5.3.2.6.1.5-.3.8-.3.9-.9 0-.6.2-1.2.7-1.7.3-.2.3-.6.2-.9-.9-1.8-2.9-3.2-4.8-3.2-.3 0-.5-.1-.7-.3l-8.4-8.4c-.6-.6-.8-.6-1.4 0l-2.1 2.1c-.3.4-.3.8.1 1.1zm2.9-2c.6.6 1.2 1.3 1.9 2 2.1 2.2 4.3 4.3 6.4 6.4.3.3.6.4 1.1.4 1.6-.1 2.7.8 3.6 2-.5.6-.6 1.4-.8 2.1-.1.3-.5.6-.8.9-.1.1-.4 0-.5-.1-1.4-.6-2.5-1.6-2.6-3.2-.1-.8-.4-1.2-1-1.7-2.8-2.4-5.7-4.8-8.5-7.2-.1-.1-.2-.2-.3-.2.5-.4.9-.9 1.5-1.4z"/><path id="XMLID_16_" class="st0" d="M-142.9-210.9c.6.7 1.3 1.4 1.9 2.2 1.8 2.3 2.5 4.8.9 7.6-.2.3-.1.7.2.9.3.2.6.1.9-.1.1-.1.2-.2.2-.3.6-1.1.9-2.2.9-3.5-.1-.6-.2-1.3-.3-1.9-.5-1.9-1.6-3.4-2.9-4.7-.7-.8-1.4-1.6-1.9-2.6-.6-1.4-.4-2.6.7-3.7.3-.3.7-.6 1-.8.3-.2.4-.6.2-.9-.2-.3-.5-.4-.9-.2-1.8.8-2.9 3-2.6 4.9.3 1.2.9 2.2 1.7 3.1z"/><path id="XMLID_15_" class="st0" d="M-146.3-209.6c.4.4.9.8 1.2 1.3.9 1.2 1.4 2.5 1 4l-.3.9c-.1.3 0 .7.3.9.3.2.7 0 .9-.3.1-.1.1-.3.2-.4.8-2.2.3-4.1-1.1-5.9-.5-.6-1.1-1.1-1.6-1.6-.8-.8-1.4-1.6-1.5-2.8-.1-1.3.4-2.4 1.2-3.5.1-.2.2-.3.4-.6-.2-.2-.3-.4-.5-.6-.3-.2-.6-.1-.8.2-1.1 1.3-1.7 2.8-1.6 4.5.2 1.6 1.1 2.8 2.2 3.9z"/><path id="XMLID_14_" class="st0" d="M-146.8-200.1c0-.5-.2-.8-.6-.8-.4 0-.6.2-.7.7-.1.3-.1.6-.4.8-.3.2-.7.3-1 .4-.4.1-.7.4-.6.7 0 .4.3.6.7.6.2 0 .5-.1.7-.1 1.1-.4 1.8-1.3 1.9-2.3z"/><path id="XMLID_13_" class="st0" d="M-148.8-195h18.8c.4 0 .6-.3.6-.7 0-.3-.3-.6-.6-.7h-18.8c-.4.1-.6.3-.6.6 0 .5.2.8.6.8z"/><path id="XMLID_12_" class="st0" d="M-142.6-193.6h-15.3c-.3.1-.5.3-.5.6s.2.6.5.7h15.4c.3-.1.5-.3.5-.7-.1-.3-.3-.6-.6-.6z"/><path id="XMLID_11_" class="st0" d="M-161.2-195h8.7c.5 0 .8-.3.8-.7 0-.4-.3-.6-.7-.6h-8.7c-.4 0-.6.3-.6.6-.1.4.2.7.5.7z"/><path id="XMLID_10_" class="st0" d="M-133.5-193.6h-5.5c-.6 0-.9.2-.8.7 0 .4.3.6.8.7h5.5c.2 0 .6-.2.7-.3.3-.6-.1-1.1-.7-1.1z"/></g><path class="st1" d="M321.3 139.8c-.8-3.5-2.9-5.9-6.3-7-2-.6-4-.5-5.7 1-.4.3-.7.6-1.1 1-.2.2-.4.4-.7.5-.4.3-.8.2-1.1-.2-.3-.3-.5-.7-.7-1.1-.7-1.7-1.1-3.5-1.1-5.4 0-.5-.2-.7-.6-.7-.4 0-.6.3-.6.7 0 1.5.2 3 .7 4.5.3.8.6 1.6 1.1 2.4.3.5.7.9 1.3 1.1.7.2 1.4-.1 1.9-.5s.9-.8 1.4-1.2c.9-.8 1.9-1.2 3-1.1 2.4.1 4.4 1.2 5.8 3.1 1.3 1.7 1.8 3.6 1.8 5.7 0 1.5-.3 3.1-.8 4.9-1 3.2-2.6 6.2-5.2 8.5-1.7 1.6-3.8 2.6-6.2 2.5-1.9-.1-3.4-.8-4.4-2.5-.2-.4-.5-.9-.8-1.3-1.1-1.6-3.3-2-4.8-.8-1.4 1-1.7 3-.8 4.5.4.6.8 1.2 1.2 1.9.7 1 1.1 2.1 1.1 3.4 0 .5.2.7.6.7.4 0 .6-.3.6-.8 0-1.1-.3-2.1-.8-3-.5-.9-1.1-1.7-1.6-2.6-.2-.3-.4-.7-.5-1-.2-1 .4-2.1 1.3-2.4 1.2-.4 2.1-.2 2.7.8l.9 1.5c.7 1.1 1.7 2 2.9 2.4 1.4.4 2.9.5 4.3.2 2.1-.4 3.8-1.6 5.3-3.1 2.5-2.5 4.1-5.6 5.1-9 1-2.7 1.3-5.1.8-7.6z"/><path class="st1" d="m296.9 161.4-1.2-1.8c-1.2-1.7-1.4-3.6-.8-5.6.8-2.6 2.9-3.7 5.5-3.1.7.2 1.5.3 2.3.3 1 .1 1.7-.4 2.2-1.2.2-.3.3-.6.4-1 .4-1.3.4-2.6.5-3.9.1-1.7-.1-3.4-1-4.9-.4-.7-.8-1.3-1.3-2-1.4-2-2-4.3-2.3-6.7-.1-1-.1-2.1-.2-3.1 0-.4-.2-.6-.6-.6-.3 0-.6.3-.6.6v.2c.1 1.2.1 2.3.2 3.5.2 2.3.9 4.5 2.2 6.4.4.6.8 1.2 1.2 1.9.5.8.9 1.7 1 2.7.1 1.5.1 2.9-.1 4.3-.1.6-.3 1.3-.5 1.9-.2.5-.6.8-1.2.7-.7-.1-1.5-.2-2.2-.3-2.2-.6-4 0-5.4 1.7-1.7 2-2.1 5.4-.8 7.9.4.8 1 1.5 1.4 2.2.4.6.7 1.3.7 2 0 .4.2.7.6.7.3 0 .6-.3.6-.7 0-.8-.2-1.5-.6-2.1zM308.1 145.4c.3 0 .6-.3.6-.7 0-1.3.2-2.6.5-3.9.1-.4 0-.7-.4-.8-.3-.1-.6.1-.7.5-.4 1.2-.5 2.5-.6 3.9v.3c0 .4.2.7.6.7zM310.8 137.5c.3-.3.7-.6 1-1 .1-.1.3-.3.3-.4 0-.6-.5-.9-.9-.6-.5.4-1 .8-1.4 1.3-.3.3-.2.6.1.8.3.3.6.2.9-.1zM333.3 161.5c.1 0 .1-.1.2-.1.6-.4.9-1 .8-1.8-.1-1.1-.9-1.7-2-1.7h-6.6c0-.1.1-.2.1-.3.5-1.3.8-2.6.6-3.9-.1-1.3-.7-2.4-1.7-3.3-.6-.4-1.2-.5-1.9-.2-.6.3-.9.8-.9 1.4v2.2c0 .2 0 .4-.1.6-.6 1.7-1.3 3.5-1.9 5.2-.2.5-.5.6-1 .8v-.6c0-.4-.2-.5-.6-.5H315.4c-.3 0-.4.1-.4.3 0 .2.2.4.4.4H317.8c.3 0 .3 0 .3.3v10.3c0 .2-.1.3-.3.3h-6.9c-.3 0-.5.2-.5.4s.2.4.5.4h7.3c.4 0 .6-.2.6-.6v-.5c.1 0 .2 0 .3.1.8.2 1.7.4 2.5.4h9.1c.9-.2 1.5-.9 1.4-1.8 0-.4-.2-.7-.3-1.1.6-.3 1.1-.7 1.3-1.5.2-.7-.1-1.4-.6-1.9.6-.3 1-.8 1.1-1.5.3-.7.1-1.3-.3-1.8zm-.2 1.6c0 .5-.6 1.1-1.2 1.1H329c-.3 0-.4.2-.4.4s.2.3.4.3h2.3c.8 0 1.3.6 1.3 1.3 0 .6-.5 1.2-1.2 1.2h-3.2c-.3 0-.4.2-.4.4s.2.3.4.3h2.2c.7 0 1.2.6 1 1.3-.1.4-.6.8-1.1.8h-8.8c-.9 0-1.7-.2-2.5-.5-.1 0-.1-.1-.1-.2v-8c0-.2 0-.3.3-.4.1 0 .3-.1.4-.2.5-.2.9-.6 1-1.2l1.8-5.1c.1-.3.1-.6.2-.9v-2c0-.4.1-.7.5-.9.4-.2.8-.1 1.2.2.5.4.8.9 1.1 1.4.4 1.1.4 2.2.2 3.3-.2.7-.4 1.3-.6 1.9-.2.5 0 .9.6.9h6.8c.4 0 .7.1 1 .4.3.3.4.7.2 1.1-.2.5-.5.7-1 .8h-3c-.3 0-.4.1-.5.4 0 .2.2.4.4.4h2.3c.8.1 1.4.8 1.3 1.5z"/><g id="XMLID_156_"><path id="XMLID_173_" class="st0" d="M48.1 22.3c-.4 0-.9.1-1.3.1-.1-1-.5-1.7-1-2.4-1.3-1.6-2.6-1.7-4.2-.4-.5.4-1 .9-1.5 1.3-1.2-1-2.1-.7-2.5.9-.2.6-.3 1.2-.3 1.8-.1.6-.1 1.2-.2 1.9-1.5-.7-1.8-.6-2.6.5-1.7-2.5-4.1-3.2-6.9-3.1-2.8.1-5.1 1-6.4 3.7-.5-.7-1-1.5-1.6-2.1-2.2-2.4-5-3.2-8.1-3.2-.2 0-.6.3-.6.5-.3.7-.5 1.5-.6 2.3-.5 2.8 0 5.5 1.8 7.8.1.2.2.5.2.7 0 2.4-.1 4.8.1 7.2.6 6.3 6 11.1 12.6 11.1h10.3c3.4 0 6.3-1.2 8.8-3.5 2.4-2.3 3.7-5 3.9-8.3.1-2 .1-4.1.1-6.1 0-.3.2-.5.3-.8.3-.5.8-.9 1.1-1.4.6-1 .3-1.9-.7-2.5-.2-.1-.5-.3-.8-.4 1-1 1.7-2.2 1.9-3.6.3-1.3-.4-2.1-1.8-2zm-20.5 8.2c.1.2.3.5.5.6.1 0 .5-.2.6-.4.3-.6.6-1.2.9-1.7.2-.3.5-.7.8-.9.5-.4 1.1-.2 1.3.4.1.4.1.8.2 1.2 0 .2.1.6.3.6.2.1.5-.1.7-.2.3-.2.5-.4.8-.6.1-.1.2-.1.3-.2.1.8.1 1.6.2 2.4H23c.3-.3.4-.7.7-.9.6-.6 1.2-1.3 1.9-1.8 1.1-.7 1.9-.2 2 1.1 0 .1-.1.3 0 .4zm-5.8-2.7c.6-2.2 2-3.4 4.1-3.8 1.7-.3 3.3-.3 4.9.3 1.7.7 2.8 1.9 3.2 3.7-.4.1-.8.3-1.1.4-.2-.6-.5-1.2-1.1-1.5-.8-.4-1.5-.3-2.1.3-.5.4-.9.9-1.3 1.4-1.2-1.3-2.4-1.5-3.9-.3-.6.5-1.2 1.1-1.7 1.7-.1.1-.3.3-.4.5-.2-.8-.4-1.6-.6-2.3-.1-.1-.1-.2 0-.4zm-9.5 2.6c-1.1-1.8-1.4-3.8-1.1-5.9.1-.8.3-1.5.4-2.2 5.3 0 9.2 3.4 9.7 9.5h-3.1c.2-.9.4-1.8.5-2.7 0-.2.1-.4.1-.6.1-.4 0-.7-.4-.8-.4-.1-.6.2-.6.6l-.3 1.5c0 .1-.1.2-.1.4-.5-.6-.7-1.1-.5-1.8.3-.9.4-1.8.6-2.6.1-.4 0-.7-.4-.7-.4-.1-.6.1-.7.5-.1.7-.3 1.4-.5 2.3-.5-.9-1-1.7-1.5-2.5-.1-.2-.2-.3-.3-.5-.2-.3-.5-.4-.8-.2-.3.2-.3.5-.2.8L14 27h-1.7c-.4 0-.7.1-.7.6 0 .4.3.6.7.6h1.9c.2 0 .5.2.6.3.3.5.6 1 .9 1.6-.7-.1-1.4-.1-2-.2-.4 0-.8 0-.8.5s.3.6.7.6c.8.1 1.6.1 2.3.3.3.1.5.3.8.5 0 .1-.1.2-.1.2-.6 0-1.3-.1-1.9 0-1.1 0-1.8-.7-2.4-1.6zm34.5 9.1c-.4 4.7-3.9 8.7-8.5 9.9-.9.2-1.8.4-2.8.4-3.8 0-7.6.1-11.4 0-4.8-.2-9.1-3.5-10.4-8.1-.3-1.1-.5-2.4-.5-3.5-.1-1.5 0-3 0-4.6V33h33.6c0 .1.1.1.1.2 0 2 .1 4.1-.1 6.3zm2.1-15.4c-.1 1.5-1.3 3.1-2.7 3.7-.2.1-.4.4-.4.6.1.2.3.4.6.5.6.2 1.2.3 1.8.5.6.2.7.6.4 1.2-.5.8-1.1 1.4-2.3 1.3-1.6-.1-3.1 0-4.8 0 .2-.4.4-.8.6-1.1l.9-2.4c.1-.4.3-.5.6-.6 1-.1 1.7-.6 2.4-1.3.3-.3.4-.6.1-.9-.3-.3-.6-.1-.9.2-.5.5-1 .9-1.8 1 .1-.7.2-1.3.3-1.9.1-.8.2-1.7.3-2.5 0-.4-.1-.7-.5-.7s-.5.3-.6.7c-.3 2-.7 4-1 6 0 .2-.1.3-.3.5-.2-.7-.5-1.4-.7-2.1-.2-.5-.3-1-.4-1.6-.1-.4-.3-.5-.6-.5-.4.1-.5.3-.4.7.3 1.6.8 3.1 1.6 4.5.1.2 0 .4.1.6-.4 1-1.1 1.6-2.3 1.4-1-.1-2 0-2.9 0-.2 0-.4-.2-.4-.3 0-1.5-.1-3 0-4.5.1-1.1.5-1.2 1.3-.4.2.1.3.4.5.5.2.1.5.3.7.2.2 0 .3-.4.3-.6.1-.7 0-1.5.1-2.3.1-.7.2-1.5.3-2.2 0-.2.2-.5.3-.8.3.3.5.5.7.8.4.5.7.5 1.2 0 .5-.6 1-1.3 1.7-1.8.8-.7 1.5-.6 2.2.2.4.4.7 1 .9 1.5.1.3 0 .7 0 1.1 0 .2 0 .5.1.7.1.1.4.1.7.1.6-.1 1.3-.3 1.9-.5.2-.3.4-.1.4.5z"/><path id="XMLID_166_" class="st0" d="M16.8 19.2c3.7-1.9 7.3-3.8 11-5.7.6-.3.7-.4.3-1-1.6-2.7-4.8-4-7.8-3.2-3 .8-5.1 3.5-5.1 6.7H15c.2.9.5 1.9.8 2.8.3.7.4.7 1 .4zm1-1.4c-.4-.9-.5-1.8-.2-2.8 1.1.4 2.3.7 3.5 1.1-1.2.6-2.2 1.1-3.3 1.7zm0-3.6c.4-.9 1-1.6 1.8-2.2.6 1.1 1.1 2.1 1.7 3.3-1.2-.4-2.3-.7-3.5-1.1zm2.6-2.5c.9-.4 1.8-.5 2.8-.2-.4 1.1-.7 2.3-1.1 3.5-.6-1.2-1.2-2.2-1.7-3.3zm2.4 3.5c.4-1.3.8-2.4 1.1-3.6.9.4 1.6 1 2.2 1.8-1 .7-2.1 1.2-3.3 1.8zm-3.9-4.4c2.9-1.8 6.8-.9 8.5 2-.2.1-.3.2-.5.3-1-1.6-2.4-2.4-4.3-2.6-1.2-.1-2.3.2-3.3.8-1.9 1.1-3.4 3.7-2.2 6.8-.1.1-.3.2-.4.3-1.1-1.7-1-5.6 2.2-7.6z"/><path id="XMLID_159_" class="st0" d="M32.2 19.7c1.2 1.6 1.2 1.6 2.6.3 2.5-2.3 2.6-5.4.3-7.9-.3-.3-.5-.4-.9-.2-.3.2-.7.4-1 .6-1.9 1.4-3.1 4.1-1.2 7 .1 0 .1.1.2.2zm2.7-6.6c.3.5.6 1 .9 1.4-.4.3-.8.5-1.2.8.1-.7.2-1.4.3-2.2zm1 2.2c.1 0 .1 0 .2.1-.1.7-.2 1.4-.3 2-.3-.1-.6-.3-.8-.3-.2 0-.4.3-.7.4-.2-1.3 1-1.5 1.6-2.2zm-.4 2.6c-.5.6-.9 1.2-1.4 1.7l-.1-.1c.1-.8.3-1.1 1.5-1.6zM33.9 13s.1 0 .1.1c-.1.7-.2 1.3-.3 2.1-.4-.4-.7-.7-1-1.1.4-.3.8-.7 1.2-1.1zm-1.5 1.8c.4.9 1.5 1.4 1 2.6-.2-.2-.3-.4-.5-.6-.1-.1-.4-.1-.5-.1 0 .2-.1.4 0 .6.1.3.3.5.5.7.6.5.4 1 .3 1.6-1.4-1.4-1.7-3.4-.8-4.8z"/><path id="XMLID_158_" class="st0" d="M17 37.5v-1.8c0-.4-.1-.7-.5-.7s-.6.3-.6.7v2.8c.1 2.2 1 4.2 2.5 5.8.3.3.6.5.9.2.4-.3.2-.6-.1-.9-1.6-1.8-2.3-3.9-2.2-6.1z"/><path id="XMLID_157_" class="st0" d="M22.3 45.7c-.5-.3-.9-.5-1.4-.7-.2-.1-.5 0-.6.2-.1.1-.1.6 0 .6.5.4 1.1.7 1.8 1 .2-.2.5-.3.5-.5s-.1-.5-.3-.6z"/></g><g id="XMLID_41_"><path id="XMLID_43_" class="st0" d="M329.1-132.8c0-1.2-.8-2.1-2.1-2.1h-5c.1-.1.1-.2.1-.3 1.1-2.1 2.1-4.2 3.2-6.2.3-.7.5-1.4.4-2.1-.3-1.5-1.4-2.5-2.9-2.7-1.4-.2-2.8.7-3.3 2s-1.1 2.6-1.6 3.9c-.7 1.7-1.5 3.5-2.2 5.2 0 .1-.1.2-.2.2h-.9c0-.3.1-.5.1-.7 0-1.9-.8-3.2-2.5-4-.1-.1-.2-.1-.2-.3v-.7c-.2-1.7-1.4-3.1-3-3.5-1.6-.4-3.4.2-4.4 1.6 0 .1-.1.1-.1.2-1.2-.5-2.6-.4-3.8.4-1.2-1-2.6-1.3-4.1-.7-1.5.6-2.3 1.8-2.5 3.4-1.2 0-2.2.4-3 1.3-.8.9-1.2 1.9-1.2 3.1H286.8c-.9 0-1.8.7-1.9 1.6-.1.6 0 1.3 0 1.9 0 .2.1.4.2.5.3.6.8.9 1.4 1 .8 8.5 5 14.6 12.8 18.2h-5.5c-.5 0-.8.3-.8.7 0 .4.3.7.8.7h26.5c.5 0 .8-.3.8-.7 0-.4-.3-.7-.8-.7h-5.5c7.7-3.6 12-9.6 12.8-18.2h.1c1-.2 1.6-1 1.6-2-.2-.4-.2-.7-.2-1zm-11.3-3.5c1-2.4 2-4.9 3.1-7.3.3-.7.8-1.1 1.6-1.2 1.4-.1 2.3 1.4 1.7 2.6-.8 1.6-1.7 3.3-2.5 4.9-.4.7-.7 1.4-1.1 2.2 0 .1-.1.2-.2.2h-3.1c.1-.5.3-1 .5-1.4zm-26.5.6c.3-1.4 1.8-2.4 3.2-2 .7.2 1.1-.2 1-.9-.2-1.2.4-2.3 1.5-2.7 1.1-.5 2.2-.1 3 .9.3.4.8.5 1.2 0 .8-1 2-1.1 3.1-.4.5.4 1 .2 1.2-.4.4-1 1.1-1.5 2.1-1.7 1.1-.1 1.9.3 2.5 1.1.4.6.6 1.3.4 2-.2.7 0 1 .7 1.2 1.5.4 2.4 2 2 3.4 0 0 0 .1-.1.1h-21.8v-.6zm15.6 24c-10.7 0-18.6-8.6-19-18.1h38c-.3 9.4-8.3 18.1-19 18.1zm20.8-20.2c0 .4-.2.6-.6.6h-40.2c-.6 0-.7-.1-.7-.7v-.8c0-.3.2-.5.5-.5H327.1c.3 0 .5.2.5.5.1.2.1.5.1.9z"/><path id="XMLID_42_" class="st0" d="M291.3-125.2c1.2 4 3.6 7 7.3 8.9.1.1.2.1.4.1.4 0 .6-.3.7-.6.1-.4-.1-.7-.4-.8-3.4-1.7-5.5-4.4-6.6-8-.1-.4-.5-.7-.9-.6-.4.1-.6.5-.5 1z"/></g><g id="XMLID_110_"><path id="XMLID_114_" class="st0" d="M333.2 31.1c-.1-.2-.2-.6-.2-.9V15.7c0-.3.1-.7.2-1 .7-1.6.7-3.2.4-4.8-.5-2.8-1.9-5-4.1-6.8-.3-.2-.5-.5-.9-.9 1.1 0 1.1-.5 1.1-1.1v-2.7c0-1.2-.8-2-2-2h-3.8c-1.2 0-2 .8-2 2V.9c0 .7 0 1.3.9 1.3v.3c-.3.3-.6.6-.9.8-3.4 3.3-5.1 7-3.3 11.7.1.3.1.6.1.8v13.8c0 .7-.1 1.4-.4 2-.3.6-.4 1.3-.5 2-.1 1.7 0 3.3 0 5 0 1.4.5 2.6 1.9 3.2 1.3.5 2.7.7 3.8-.7.6 1 1.5 1 2.4 1 1 0 1.9 0 2.4-.9.4.3.8.7 1.1.8 2.4.5 4.5-.5 4.5-3v-4.8c.1-1.1-.1-2.2-.7-3.1zm-10-32.9c0-.5.3-.7.8-.7h3.8c.5 0 .8.2.8.7V.7h-5.4c0-.8-.1-1.7 0-2.5zM320.4 7c.7-1.2 1.8-2.2 2.8-3.3.4-.5.8-1 1.3-1.7h2.8c.5.7.8 1.3 1.3 1.6 2 1.7 3.4 3.7 3.9 6.3.2 1.2.3 2.4-.2 3.6-.1.4-.3.6-.8.6h-11.3c-.5 0-.7-.2-.8-.7-.7-2.1-.2-4.4 1-6.4zm11.3 8.5v14.9h-11.8V15.5h11.8zm-1.8 25.4c-.2 0-.4-.3-.5-.5-.6-.7-1.4-.7-2 0-.6.8-2.3.8-2.9 0-.6-.7-1.5-.8-1.9-.1-.6.9-1.4.6-2.1.5-.7-.1-1.3-.8-1.3-1.6 0-2-.1-4 0-5.9 0-1.3.4-1.5 1.7-1.5h10.7c.6 0 1 .2 1.1.8.1.4.2.8.2 1.2v5.1c-.2 1.7-1.5 2.2-3 2z"/><path id="XMLID_113_" class="st0" d="M321 23v3.9c0 .6-.1 1.2 0 1.8 0 .2.4.4.6.6.2-.2.4-.4.5-.6.1-.1 0-.4 0-.5V17.8c0-.2.1-.4 0-.5-.2-.2-.4-.6-.6-.6-.2 0-.4.3-.6.6-.1.2 0 .4 0 .6.1 1.6.1 3.3.1 5.1z"/><path id="XMLID_112_" class="st0" d="M320.8 12.9c.6 0 .6-.4.6-.8 0-.6.1-1.3.2-1.9.3-2 1.3-3.7 2.8-5 .5-.4.5-1 0-1.1-.3-.1-.7.1-.9.3-2.2 2-3.2 4.5-3.2 7.4v.3c0 .3 0 .7.5.8z"/><path id="XMLID_111_" class="st0" d="M320.8 32.8c-.5-.1-.6.3-.6.7v5.3c0 .3.3.7.6.7.5.1.6-.3.6-.8v-5.2c0-.2-.3-.6-.6-.7z"/></g><g id="XMLID_133_"><path id="XMLID_148_" class="st0" d="M342.3 89.1h-.9v-8.5c0-.2.1-.4 0-.6-.1-.2-.4-.5-.6-.5-.2 0-.5.2-.7.5-.1.2-.1.4-.1.7v8.4h-1.7v-4.7c0-.7-.2-.9-.9-.9h-.3c-.2-.5.3-1.5-.7-1.5s-.6 1-.8 1.5c-1.1.1-1.1.2-1.1 1.2v4.5h-2.2c-.4-1.8-1.6-2.8-3.4-3.2.3-.5.5-.9 0-1.2-.2-.1-.7-.1-.9 0-.5.3-.3.8 0 1.2-1.7.3-2.8 1.2-3.3 2.9 0 .1-.2.3-.3.3h-2V87c0-.7-.2-.9-.9-.9h-3v-2.8c0-.8-.2-1-1-1h-1.8c-.8 0-1 .2-1 1V86c-.1 0-.2.1-.3.1-1 .1-1 .1-1 1.1v2h-1.7v-8.5c0-.2.1-.4 0-.6-.1-.2-.4-.5-.6-.5-.2 0-.5.2-.6.4-.1.2-.1.4-.1.7v8.5h-1c-.4 0-.7.2-.7.6 0 .4.3.7.7.7h32.3v7.6h-19.3c-1.1-3.1-2.5-4.5-5-4.5-3 0-4.7 1.7-5.5 4.5H310v-5c0-.5-.1-.9-.7-.9-.5 0-.7.4-.7.8v5.6c0 .6.3.8.8.9h1.9c.4 0 .6.1.7.6.5 2.3 2.7 4 5 4 2.4 0 4.5-1.6 5.1-4 .1-.4.3-.6.7-.6h11.4c-.6 1.8-.3 3 .8 3.9 1 .8 2.4.8 3.4.1 1.2-.8 1.5-2 .9-4h2.7c.6 0 .9-.3.9-.9V90c.2-.7-.1-1-.6-.9zm-26.2-5.6h1v2.4h-1v-2.4zm5 5.5h-6.3v-1.8h6.3V89zm5.2 0c.1-.9 1-1.7 2.1-1.8 1.1-.1 2.2.6 2.5 1.8h-4.6zm10.7 0h-1v-4.2h1V89zm-19.9 13.6c-2.1 0-3.9-1.7-3.9-3.8 0-2.1 1.7-3.9 3.9-3.9 2.1 0 3.8 1.7 3.9 3.8 0 2.2-1.7 3.9-3.9 3.9zm19.7 0c-.8 0-1.5-.7-1.5-1.6 0-.9.7-1.6 1.7-1.5.8 0 1.5.7 1.5 1.5 0 .9-.7 1.6-1.7 1.6z"/><path id="XMLID_136_" class="st0" d="M346 73c-1.1-1.7-2.3-3.3-3.4-4.9-.3-.4-.6-.5-1-.5h-31.1c-.5 0-.9.2-1.2.6-1.1 1.6-2.3 3.2-3.4 4.8-.2.3-.3.8-.2 1.2.6 2.9 3.8 4.5 6.5 3.2.8-.4 1.4-1 2.1-1.5 1.9 2.6 5.6 2.8 7.8-.1 2.4 3 6 2.5 7.9 0 3 2.8 5.4 2.8 7.9-.1.2.2.3.4.4.5 1.3 1.4 2.9 1.9 4.7 1.5 1.8-.5 2.9-1.7 3.3-3.5 0-.4-.1-.9-.3-1.2zm-36 3.4c-1.2 0-2.4-.9-2.8-2.1h6c-.5 1.4-1.7 2.2-3.2 2.1zm4.2-4.9c-.7 1.5-.7 1.5-2.3 1.4h-4.4c1-1.4 1.8-2.6 2.7-3.8.1-.1.3-.2.5-.2h4.7c-.4.9-.8 1.7-1.2 2.6zm3.8 4.9c-1.4 0-2.6-.8-3-2.1h6c-.3 1.3-1.6 2.1-3 2.1zm3.4-3.5h-6.3c.6-1.3 1.1-2.5 1.6-3.8 0-.1.2-.2.3-.2h4.9c-.2 1.3-.3 2.6-.5 4zm4.8 3.5c-1.6.1-2.8-.7-3.3-2.1h6c-.3 1.2-1.5 2.1-2.7 2.1zm-3.4-3.5c.2-1.2.3-2.3.5-3.4 0-.3 0-.6.5-.6h4.8c.2 1.3.4 2.6.6 4h-6.4zm7.1-4h4.6c.2 0 .5.1.6.2.5 1.2 1.1 2.4 1.6 3.8h-6.3c-.2-1.3-.3-2.6-.5-4zm3.8 7.5c-1.4 0-2.5-.8-3-2.1h6c-.4 1.3-1.5 2.1-3 2.1zm4.3-3.8c-.5-1.2-1-2.4-1.5-3.7h2.6c.8 0 1.7-.2 2.3.1.6.3 1 1.2 1.4 1.8.5.7.9 1.3 1.5 2.1h-5.8c-.2 0-.4-.2-.5-.3zm4 3.8c-1.6.1-2.9-.7-3.3-2.1h6c-.3 1.1-1.5 2-2.7 2.1z"/><path id="XMLID_135_" class="st0" d="M317.2 96.3c-1.2 0-2.1.8-2.4 1.9-.1.5 0 .8.5.9.5.1.7-.1.8-.6.1-.4.4-.8.9-.9.6-.1 1.1.3 1.2.8.1.6-.2 1.1-.8 1.3-.5.1-.8.4-.7.9.1.5.6.6 1.1.4 1.1-.3 1.9-1.5 1.8-2.6-.2-1.2-1.2-2.1-2.4-2.1z"/><path id="XMLID_134_" class="st0" d="M336.3 101c0 .3.4.6.6.6.3 0 .5-.3.8-.4v-.3c-.3-.2-.5-.5-.8-.5-.4-.1-.7.2-.6.6z"/></g><g id="XMLID_74_"><path id="XMLID_91_" class="st0" d="M320.5-69.1c-4-6.7-11.8-10.3-19.4-8.9-5.8 1.1-10.2 4.1-13.2 9.2-.5.8-.8 1.7-1.3 2.6-.1.3-.1.6.1.7.2.1.5.2.7.2.3 0 .4-.3.5-.6 2.8-6.4 7.6-10.2 14.6-11 4.9-.6 9.3.8 13 4 5.1 4.4 7.1 10.1 5.9 16.7-1.2 6.4-5.1 10.8-11.2 13.1-3.3 1.3-6.7 1.4-10.1.5-.5-.1-.9 0-1 .5-.1.4.2.7.7.9 1.5.4 3 .5 4.2.5 5.3 0 10.2-2 13.7-5.5 6.1-6 7.3-15.4 2.8-22.9z"/><path id="XMLID_90_" class="st0" d="M291.3-62.9c-.1-.3-.3-.5-.7-.5-.3 0-.5.2-.6.5V-57.1c0 1.1-.4 1.7-1.4 2.1-.6.2-.7.5-.7 1.1.1 1.9.1 3.7.2 5.6 0 1.6.1 3.2.1 4.8v1.1c0 .3-.3.6-.6.6s-.6-.2-.6-.6v-.3l.3-11.1c0-.8-.1-.9-.8-1.3-.9-.4-1.4-1-1.3-2v-5.7c-.1-.3-.4-.5-.7-.5-.3 0-.6.2-.6.6V-56.9c0 1.4.6 2.4 1.8 3.1.2.1.3.3.3.5l-.3 10.8c0 1.2.8 2.2 2 2.2s2-1 2-2.2l-.3-10.7c0-.3.1-.5.4-.6 1.2-.6 1.8-1.6 1.8-3v-5.5c-.3-.4-.3-.5-.3-.6z"/><path id="XMLID_87_" class="st0" d="M296.3-63.4c-.6-.2-1 .1-1.3.5-.3.4-.5.8-.7 1.2-.5 1.6-1 3.3-1.5 5-.4 1.8-.7 3.6-.8 5.4 0 .9.4 1.4 1.3 1.4h.5v.2c-.2 2.3-.4 4.7-.5 7-.1 1.3 1 2.3 2.3 2.1 1-.2 1.7-1 1.7-2.1V-62.3c-.1-.5-.5-1-1-1.1zm-.4 20.9c0 .4-.3.6-.6.6s-.6-.3-.6-.7c.1-.8.1-1.7.2-2.5.1-1.8.3-3.6.4-5.4 0-.6-.2-.9-.8-.9h-.7c-.3 0-.4-.1-.3-.4.3-1.8.5-3.6.9-5.3.3-1.4.8-2.8 1.2-4.1 0-.2.1-.3.2-.5h.1V-42.5z"/><path id="XMLID_86_" class="st0" d="M297-66.4c-.2.3 0 .6.2.8 2.2 2.2 4.4 4.4 6.5 6.6.4.4.6.4 1.1.1.7-.4 1.3-.8 2-1.1 1.4-.8 2.7-1.6 4.1-2.3.4-.2.5-.6.3-1s-.6-.5-1.1-.2c-1.7 1-3.5 2-5.2 3-.3.2-.5.2-.7-.1-1.9-2-3.9-4-5.9-5.9-.2-.2-.9-.5-1.3.1z"/><path id="XMLID_85_" class="st0" d="M287.8-57.7c0 .5.3.7.7.7.4 0 .7-.3.7-.7v-5c0-.2-.2-.5-.3-.6-.4-.3-1 0-1 .6v2.5c-.1.8-.1 1.6-.1 2.5z"/><path id="XMLID_84_" class="st0" d="M285.7-57.8c0 .5.3.8.7.8.4 0 .7-.3.7-.8v-4.9c0-.5-.3-.8-.7-.8-.4 0-.7.3-.7.8v4.9z"/><path id="XMLID_83_" class="st0" d="M305-73.9c0-.6-.2-1-.7-1-.4 0-.7.3-.7.9 0 .6.2.9.6.9.5 0 .8-.3.8-.8z"/><path id="XMLID_82_" class="st0" d="M316.9-65.9c.5 0 1-.5 1-.9s-.3-.7-.7-.7c-.5 0-1 .5-1 .9s.3.7.7.7z"/><path id="XMLID_81_" class="st0" d="M292.5-66.6c0-.4-.5-.9-1-.9-.4 0-.7.3-.7.7 0 .4.5.9 1 .9.4 0 .7-.3.7-.7z"/><path id="XMLID_80_" class="st0" d="M311.6-47.5c-.4 0-.7.3-.7.7 0 .5.5 1.1.9 1.1s.7-.3.7-.7c0-.6-.5-1.1-.9-1.1z"/><path id="XMLID_79_" class="st0" d="M296.9-72.9c-.4 0-.7.3-.7.7 0 .5.5 1 .9 1s.7-.3.7-.7c0-.4-.4-1-.9-1z"/><path id="XMLID_78_" class="st0" d="M311.8-72.9c-.4 0-.9.5-.9 1 0 .4.3.7.7.7.4 0 .9-.5.9-1 0-.4-.3-.7-.7-.7z"/><path id="XMLID_77_" class="st0" d="M319.9-59.4c0-.4-.3-.7-.8-.7-.6 0-.9.2-1 .7 0 .5.3.7.8.7.7 0 1-.2 1-.7z"/><path id="XMLID_76_" class="st0" d="M316.2-51.9c.1.3.7.7 1.1.6.3-.1.5-.3.6-.7 0-.4-.3-.6-.5-.7-.3-.2-.5-.2-.8-.1-.4.2-.5.6-.4.9z"/><path id="XMLID_75_" class="st0" d="M304.2-45.6c-.4.1-.5.3-.5.9v.2c0 .4.3.7.7.7.4 0 .7-.2.7-.7v-.5c-.2-.5-.5-.7-.9-.6z"/></g><g id="XMLID_24_"><path id="XMLID_34_" class="st0" d="M-111.4-128.3h-4.7c-.4 0-.6-.1-.8-.4l-8.2-8.2c-.2-.2-.1-.3-.1-.5.2-.7.5-1.5.6-2.3.3-1.3-.3-2.6-1.5-3.2-.7-.3-.9-.7-1-1.4-.1-1-.7-1.9-1.5-2.6-.3-.2-.6-.3-.9-.1-.3.2-.5.4-.5.8 0 .3.2.6.4.8.6.6.9 1.3 1 2.2-1.5.4-2.4 1.4-2.7 3-4.4-.7-8.2.5-11.3 3.6-.6-.3-1-.6-1.6-.7-.5-.1-1.1-.1-1.7-.2-.3-.8-.4-1.6 0-2.4.2-.5 0-1-.4-1.2-.5-.2-1 0-1.2.5-.3.6-.5 1.3-.4 2 .1.7.2 1.3.4 2.1-.6.6-1.1 1.4-1.1 2.3 0 1 .5 1.8 1.1 2.5l-.2.2-3 3c-.1.1-.3.2-.5.2h-4.8v1.8h2.8c.3 0 .4.1.6.3.5.6.9 1.2 1.4 1.9.8 1.1 1.9 1.6 3.2 1.6h28.5c1.4 0 2.5-.5 3.3-1.7.4-.6.9-1.2 1.4-1.8.1-.2.3-.3.5-.3h3.3v-1.8h-.4zm-16.2-13.1c1 .1 1.5.8 1.4 1.8-.1.5-.3 1-.4 1.5l-3-1.5c.1-1.2.9-1.9 2-1.8zm-12.8 5.2c2.8-2.2 6-2.9 9.5-1.9 1.8.5 3.3 1.4 4.6 2.7 2.3 2.3 4.6 4.6 7 6.9.1.1.1.1.2.3h-11.3c.2-.2.4-.3.6-.4.4-.3.6-.7.5-1.1-.1-.4-.5-.7-1-.6-1.7.2-3.4-.1-5-.7-2.2-.7-4.6-2.3-6.2-4.2.4-.3.7-.7 1.1-1zm-6 1c.7-.6 1.9-.6 2.5 0 .5.6 1 1.2 1.5 1.7 2.4 2.4 5.1 4 8.5 4.7 0 0 .1 0 .2.1-1.1.3-2.1.5-3.2.4-3.9-.2-7-1.9-9.5-4.7-.7-.8-.6-1.6 0-2.2zm.2 4.9c.4.3.8.7 1.3 1 .5.3 1 .6 1.5 1h-4.9c.7-.6 1.4-1.3 2.1-2zm28.1 5.3c-.4.4-.9.4-1.4.4H-148c-.8 0-1.5-.3-2-1-.2-.3-.5-.6-.8-1h33.8c-.3.7-.6 1.2-1.1 1.6z"/><path id="XMLID_33_" class="st0" d="M-137.1-149.5c-.6 1.6-.3 3.1.8 4.5.4.5.7 1 .8 1.7 0 .6.4 1 .9.9.5 0 .8-.5.8-1.1 0-1.1-.5-2-1.2-2.8-.3-.4-.6-.8-.6-1.3-.1-.8.2-1.5.7-2.2.7-.8 1.1-1.7 1.1-2.8 0-1-.2-1.8-.8-2.6-.5-.7-1-1.3-1-2.2 0-.5-.4-.9-.9-.8-.5 0-.8.4-.8 1 0 1.1.5 2 1.1 2.8 1 1.2 1 2.3 0 3.5-.4.5-.7.9-.9 1.4z"/><path id="XMLID_32_" class="st0" d="M-133.2-147.2c.4.2.8.2 1.2-.2 1.3-1.5 1.9-3.2 2-5.2-.1-.6-.1-1.1-.2-1.7-.1-.5-.3-.9-.4-1.3-.2-.5-.7-.8-1.2-.6-.5.2-.6.7-.5 1.2.1.4.3.8.4 1.2.3 1.8-.1 3.5-1.2 5-.1.2-.3.3-.3.5-.3.5-.1.9.2 1.1z"/><path id="XMLID_31_" class="st0" d="M-140.6-144.9c.2.5.7.7 1.1.6.5-.2.7-.6.5-1.1 0-.2-.1-.3-.2-.5-.6-1.9-.4-3.8.7-5.5.2-.3.4-.5.5-.7.2-.4.1-.9-.2-1.2-.4-.3-.9-.2-1.2.1-1.3 1.6-2 3.4-2 5.4.3 1.1.5 2 .8 2.9z"/><path id="XMLID_29_" class="st0" d="M-135.2-134c.8 0 1.4-.6 1.4-1.4 0-.7-.6-1.3-1.4-1.3-.7 0-1.3.6-1.3 1.3 0 .8.6 1.4 1.3 1.4z"/><path id="XMLID_28_" class="st0" d="M-125.8-129.3c.8 0 1.4-.6 1.4-1.4 0-.7-.6-1.3-1.4-1.3-.7 0-1.3.6-1.3 1.3 0 .8.5 1.4 1.3 1.4z"/><path id="XMLID_27_" class="st0" d="M-131.9-132.1c.5 0 .9-.4.9-.9s-.4-.9-.9-.9-.9.4-.8.9c-.1.5.3.9.8.9z"/><path id="XMLID_25_" class="st0" d="M-129.1-134c.5 0 .9-.4.9-.9s-.4-.9-.9-.9-.9.4-.9.9.4.9.9.9z"/></g><g id="XMLID_49_"><path id="XMLID_66_" class="st0" d="M-133.6-65.4c-1-5.7-3-11.1-6.1-16.1-.5-.8-.3-1.6-.4-2.4h1.3c0-1.2.1-2.3 0-3.5-.1-.9-.9-1.7-1.9-1.7h-7.8c-.9 0-1.8.7-1.9 1.6-.1 1.2 0 2.3 0 3.5h1.3v1.1c0 .4-.1.8-.3 1.2-.9 1.6-1.8 3.2-2.6 4.9-2.8 6.1-4.2 12.5-4.2 19.3 0 2.4.9 4.5 2.5 6.3 1.1 1.2 2.5 2.1 4.2 2.1 3.3.1 6.5 0 9.8 0 1.2 0 2.3-.4 3.2-1.2 2.2-1.8 3.4-4.2 3.5-7.1.1-2.7-.1-5.4-.6-8zm-4-9.2c0 .1-.2.2-.3.3l-1.8.6c-2.1.5-4 .1-5.9-1 0 0-.1 0-.1-.1 1.7-1.1 3.6-1.5 5.6-1.2.7.1 1.3.3 2 .5.3.1.3.5.5.9zM-149-87.3c0-.4.4-.5.7-.5h7.4c.6 0 .9.2.9.8v1.7h-1.3v-1.2h-1.3v1.2h-1.3v-1.2h-1.3v1.2h-1.3v-1.2h-1.3v1.2h-1.3c0-.6 0-1.3.1-2zm-1 9.4c.7-1.2 1.3-2.4 2-3.5.1-.2.2-.5.2-.7v-1.7h6.5v1.7c0 .2.1.5.2.7.8 1.4 1.6 2.8 2.4 4.3l-.1.1c-.2 0-.4-.1-.5-.1-2.7-.6-5.1 0-7.4 1.4-.3.2-.5.2-.8 0-.9-.5-1.9-.9-2.9-1.4.2-.3.3-.6.4-.8zm-.9 1.9c.9.4 1.8.8 2.7 1.3.9.5 1.9 1 2.8 1.5 2 1.1 4.2 1.2 6.3.7.7-.2 1.3-.4 2.1-.7 1 2.8 1.8 5.7 2.3 8.7h-19.6c.6-4 1.7-7.8 3.4-11.5zm11.1 25.6h-9.5c-1.4 0-2.6-.8-3.5-1.8-.2-.2-.4-.4-.6-.7h17.6c-1 1.4-2.2 2.5-4 2.5zm5-4.1c-.1.2-.2.3-.5.3h-18.5c-.3 0-.4-.1-.5-.3-.6-1.5-.7-3-.6-4.6l.3-3.9v-.3h19.9c0 .3.1.6.1.9.1 1.6.2 3.2.2 4.8.2 1.1 0 2.1-.4 3.1z"/><path id="XMLID_63_" class="st0" d="M-149.1-69.7c-1.1 0-1.9.9-2 1.9 0 1.1.8 2 1.9 2 1 0 1.9-.9 2-1.9.1-1.1-.8-2-1.9-2zm0 2.6c-.3 0-.6-.3-.6-.6s.3-.6.6-.7c.3 0 .6.3.7.6 0 .4-.3.7-.7.7z"/><path id="XMLID_60_" class="st0" d="M-140-71c-1 0-1.9.9-2 1.9 0 1.1.9 2 1.9 2 1.1 0 1.9-.9 2-1.9 0-1.1-.8-2-1.9-2zm-.1 2.6c-.3 0-.6-.3-.6-.7 0-.4.3-.6.7-.6.3 0 .6.3.6.7 0 .3-.3.6-.7.6z"/><path id="XMLID_57_" class="st0" d="M-137.4-62c-1.1 0-1.9.9-1.9 2v4.5h1.3v-1.2h1.3v1.3h1.3v-4.4c-.1-1.3-1-2.2-2-2.2zm.6 3.9h-1.3v-2c0-.3.3-.5.6-.5s.6.3.6.6c.1.6.1 1.2.1 1.9z"/><path id="XMLID_54_" class="st0" d="M-143.9-61.9v6.4c2.4.3 3.8-1.4 3.8-3.2.1-2-1.6-3.4-3.8-3.2zm1.3 4.9v-3.5c.7.2 1.3.9 1.3 1.8 0 .8-.6 1.5-1.3 1.7z"/><path id="XMLID_51_" class="st0" d="M-147.1-62c-1.1 0-1.9.9-1.9 2v2.6c0 1.1.9 2 1.9 2 1.1 0 1.9-.9 1.9-2v-2.5c0-1.2-.9-2.1-1.9-2.1zm.6 4.5c0 .4-.3.7-.7.7-.4 0-.6-.3-.6-.7v-2.4c0-.4.3-.7.6-.7.4 0 .6.3.6.7v1.2c.1.4.1.8.1 1.2z"/><path id="XMLID_50_" class="st0" d="M-151.5-59.4c-.5 0-.7-.2-.8-.6 0-.3.2-.6.5-.7.3-.1.6.1.8.6h1.2c0-1.1-.8-1.9-1.9-1.9-1 0-1.9.8-2 1.8-.1 1 .7 2 1.7 2.1.1 0 .3 0 .4.1.3.1.5.3.4.6-.1.2-.3.5-.5.6-.3.1-.5 0-.7-.3-.1-.1-.1-.2-.1-.3h-1.2c0 1.1.8 1.9 1.9 1.9 1.1 0 1.9-.8 2-1.8.1-1.1-.7-2-1.7-2.1z"/></g><g id="XMLID_92_"><path id="XMLID_106_" class="st0" d="M-150.3-15.7c-4.5 0-7.9 2.9-8.8 7.3-.1.3-.3.7-.6.9-.8.7-1.1 1.8-.8 2.9.3 1 1.1 1.6 2.3 1.6h25c1.3 0 2.1-.5 2.4-1.7.4-1.1 0-2.2-.9-2.9-.2-.2-.4-.4-.4-.7-.8-4.6-4.3-7.5-9-7.5-3 .1-6.1.1-9.2.1zm-7.3 9.7h24.3c.2 0 .5.1.7.3.1.1.1.5-.1.6-.2.2-.5.2-.8.2h-24.4c-.1 0-.3.1-.4 0-.2-.2-.5-.4-.5-.6 0-.2.3-.5.5-.6.2 0 .5.1.7.1zm7.1-7.8c3.2 0 6.5-.1 9.7 0 1 0 2.1.3 3.1.7 2.1 1 3.3 2.7 3.7 5.1h-23.3c0-.3.1-.5.1-.7.9-3 3.5-5.1 6.7-5.1z"/><path id="XMLID_103_" class="st0" d="M-161.2 2.3c.1 1.5 1.4 2.5 3 2.5 1.3 0 2.1-.3 3.6-1.1 2.5 1.6 4.9 1.5 7.4 0 1.6 1.1 3.3 1.4 5.2 1 .1 0 .2 0 .3-.1.6-.3 1.2-.8 1.9-.8.6 0 1.2.6 1.8.8 1.8.5 3.5.4 5.1-.6.3-.2.7-.3 1-.4 1.5-.3 2.5-1.5 2.4-2.9-.1-1.4-1.2-2.5-2.7-2.6-1.3-.1-2.5.2-3.5.9-.3.2-.6.2-1 0-2.1-1.2-4.3-1.2-6.4 0-.4.2-.6.2-1 0-2.1-1.2-4.3-1.2-6.4 0-.4.2-.6.2-1 0-2.1-1.2-4.2-1.2-6.4 0-.3.2-.7.3-1 .4-1.4.2-2.4 1.4-2.3 2.9zm1.9-.3c0-.5.5-.8 1.2-1 .3-.1.7-.2 1-.4 1.8-1.1 3.5-1.2 5.3 0 .7.5 1.4.5 2.1 0 1.7-1.2 3.5-1.2 5.3 0 .7.5 1.4.5 2.2 0 1.7-1.1 3.4-1.1 5.1 0 .8.5 1.5.5 2.2 0 .8-.6 1.6-.8 2.6-.8.5 0 1 .2 1.1.8 0 .6-.4.8-.9 1-.5.1-1 .3-1.4.5-1.6 1-3.3 1-4.8 0-.9-.6-1.6-.6-2.5 0-1.6 1.1-3.3 1.1-4.9 0-.9-.6-1.6-.6-2.5 0-1.6 1.1-3.3 1.1-4.9 0-.9-.6-1.6-.6-2.5 0-.7.4-1.5.6-2.2.9-.9-.1-1.5-.4-1.5-1z"/><path id="XMLID_100_" class="st0" d="M-159.2 7.4c.1 4.4 4 8.2 8.3 8.2 3.5.1 7 .1 10.5 0 4.4-.1 8.2-3.8 8.3-8.2 0-1.1-.2-1.4-1.3-1.4h-24.5c-1.1 0-1.3.3-1.3 1.4zm1.9.5h23.4c-.1.5-.2.8-.3 1.2-1 2.8-3.5 4.6-6.5 4.6h-9.9c-2.9 0-4.9-1.4-6.2-4-.2-.5-.3-1.1-.5-1.8z"/><path id="XMLID_99_" class="st0" d="M-149-8.7c-.2 0-.4-.3-.6-.4l1.1-1.1c.3.3.6.5.7.7.1.3-.6.9-1.2.8z"/><path id="XMLID_98_" class="st0" d="M-150.4-10.9c-.1-.1-.3-.3-.4-.5 0-.4.7-.9 1.2-.8.2 0 .5.3.6.5.1.3-.6.8-1.4.8z"/><path id="XMLID_97_" class="st0" d="M-143-10.6c.1.1.4.3.4.4 0 .6-.6.8-1.1.8-.2 0-.6-.2-.6-.4-.1-.3.5-.8 1.3-.8z"/><path id="XMLID_96_" class="st0" d="M-139.7-11.1c.4.4.8.7 1.1 1-.2.2-.4.4-.7.4-.5 0-1-.2-1.1-.8 0-.1.4-.3.7-.6z"/><path id="XMLID_95_" class="st0" d="M-145.1-11.8c.1.4-.5.8-1.3.9-.1-.1-.3-.2-.4-.4-.1-.4.6-.9 1.1-.8.3-.1.6.1.6.3z"/><path id="XMLID_94_" class="st0" d="M-153.2-8.7c-.1-.1-.3-.2-.4-.5-.1-.4.6-.9 1.1-.8.2 0 .5.2.6.4.1.4-.6.9-1.3.9z"/><path id="XMLID_93_" class="st0" d="M-142.1-12.7c.5 0 1 .2 1.1.8 0 .2-.3.3-.6.7-.4-.4-.8-.7-1.1-1 .2-.2.4-.5.6-.5z"/></g><g id="XMLID_120_"><g id="XMLID_122_"><path id="XMLID_128_" class="st0" d="M-153.7 53.3c3.4-4.1 5.5-8.9 6.9-14 .2-.8.4-1.6.5-2.3 0-.8-.6-1.2-1.2-1.1-1.7.4-3.4.8-5.1 1.3-4.4 1.4-8.4 3.4-11.8 6.5-4.5 4.1-7.5 9.2-9.4 15-.1.4-.3.6-.7.7l-5.7 1.5c-.7.2-1 .5-1 1s.2.9.8 1.1c1.5.7 3.1 1.3 4.6 2 .4.2.6.4.8.8.4 1.3.9 2.5 1.4 3.8.2.7.6 1 1.1.9.5 0 .8-.3 1-1 .5-2 1.1-4 1.6-6 .1-.4.3-.6.6-.7 1.3-.5 2.7-.9 4-1.4 4.5-1.8 8.4-4.4 11.6-8.1zm5.5-15.6c-.6 2.6-1.4 5-2.4 7.4-2.3-1.1-3.9-2.7-4.9-5 2.3-1.1 4.7-1.9 7.3-2.4zm-8.9 3c1.2 2.7 3.1 4.6 5.7 5.8-2.3 4.6-5.5 8.4-10 11.1-.2-.9-.3-1.8-.4-2.6 0-.4-.2-.5-.5-.5-.7-.1-1.3-.3-2-.4-.3 0-.4-.2-.5-.5l-.3-1.8c0-.4-.2-.5-.6-.6-.9-.1-1.7-.3-2.7-.5 2.9-4.4 6.6-7.7 11.3-10zM-174 62.4c0 .1 0 .2.1.2.6 1.3.6 1.3 1.9 1h.4c-.4 1.3-.7 2.5-1.1 3.9-.1-.3-.2-.4-.2-.5l-.9-2.4c-.1-.4-.4-.6-.7-.8-1.1-.5-2.3-1-3.4-1.5-.1-.1-.2-.1-.5-.2.4-.1.7-.2 1.1-.3 1.4-.4 2.8-.7 4.3-1.2.2-.1.4-.3.5-.5.8-2.9 2-5.7 3.6-8.3.1-.2.3-.4.5-.6 0 .2 0 .4-.1.5 0 .2-.1.3-.1.6.6.1 1.1.3 1.6.3.4 0 .5.2.6.6.1.6.3 1.2.3 1.8 0 .3.2.4.5.5.6.1 1.3.2 1.9.3.3 0 .5.2.5.5.1.6.2 1.1.3 1.7.3 0 .5 0 .7-.1-3.7 2.4-7.7 3.7-11.8 4.5z"/><path id="XMLID_127_" class="st0" d="M-170 41.7c2.1-1.6 4.6-2.3 7.2-2.4v-1.6c-5.7-.2-11.5 3.9-13.1 9.6.5.1 1 .3 1.5.5.8-2.5 2.3-4.6 4.4-6.1z"/><path id="XMLID_126_" class="st0" d="M-176.6 51.5H-174.9c.1-.6.1-1.1.2-1.7-.5-.1-1.1-.1-1.6-.2-.2.7-.3 1.3-.3 1.9z"/><path id="XMLID_125_" class="st0" d="M-159.4 46c.1.7.3 1.3.3 2 0 .4.2.5.5.5l1.8.3c.3 0 .5.2.5.5.1.6.2 1.1.3 1.8.6-.1 1.1-.2 1.6-.3-.2-1.2-.4-2.2-.6-3.3-.8-.1-1.5-.2-2.2-.3-.4 0-.6-.2-.6-.6-.1-.6-.2-1.3-.4-1.9 0-.2-.2-.4-.4-.4l-3-.6c-.1.5-.2 1-.3 1.6.7.1 1.2.3 1.8.3.6 0 .7.1.7.4z"/><path id="XMLID_124_" class="st0" d="M-162.9 49.6c.1.6.2 1.3.3 1.9.1.3.1.5.5.5.5.1 1.1.2 1.6.3.6.1.8.3.8.9 0 .5.2 1 .3 1.5.5-.1 1-.2 1.6-.3-.2-1-.3-2-.5-3 0-.2-.3-.4-.5-.4-.6-.2-1.3-.2-1.9-.4-.3-.1-.5-.2-.5-.5-.1-.7-.2-1.3-.4-2 0-.1-.1-.3-.2-.3l-3-.6c-.1.6-.2 1.1-.3 1.6.6.1 1.1.2 1.7.3.3 0 .4.2.5.5z"/><path id="XMLID_123_" class="st0" d="m-151.7 40.6-1.1-1.1-1.2 1.2c.4.4.7.7 1 1.1.5-.4.9-.8 1.3-1.2z"/></g><path id="XMLID_121_" class="st0" d="M-144.5 64.9c-.4-.4-1-.4-1.3 0l-4.1 4.1V55.6c0-.5-.4-.9-.9-.9s-.9.4-.9.9v13.1l-4.1-4.1c-.4-.4-1-.4-1.3 0-.4.4-.4 1 0 1.3l5.5 5.5c.1.4.5.6.9.6h.2c.2 0 .5-.1.7-.3l5.6-5.6c.1-.3.1-.9-.3-1.2z"/></g></svg>